# xmcd CD database file
#
# Track frame offsets:
#	150
#	17977
#	41860
#	61061
#	78065
#	97626
#	114722
#	128858
#	150035
#	173640
#	191532
#	209463
#	225335
#
# Disc length: 3226 seconds
#
# Revision: 0
# Processed by: cddbd v1.4PL0 Copyright (c) Steve Scherf et al.
# Submitted via: CDex 1.40Beta9
#
DISCID=920c980d
DTITLE=Rachel Blue - Sampler
DYEAR=2000
DGENRE=Blues
TTITLE0=Borderline
TTITLE1=We Are One
TTITLE2=Moving On
TTITLE3=Who Do You Love
TTITLE4=There Is No Escape
TTITLE5=Be My Star
TTITLE6=Nowhere Street
TTITLE7=Carry Me
TTITLE8=Look To You
TTITLE9=Friend Of Mine
TTITLE10=Showdown
TTITLE11=I Am Not Alone
TTITLE12=Keep The Faith
EXTD=YEAR: 2000 ID3G: 0
EXTT0=
EXTT1=
EXTT2=
EXTT3=
EXTT4=
EXTT5=
EXTT6=
EXTT7=
EXTT8=
EXTT9=
EXTT10=
EXTT11=
EXTT12=
PLAYORDER=
